<svg xmlns="http://www.w3.org/2000/svg" viewBox="0 0 1200 1200" fill="none" stroke="#c8b898" stroke-width="0.6" opacity="1">
  <!-- Kobberstikk-stil bølger — parallelle linjer som følger bølgeform -->

  <!-- Bølgesett 1 (øvre del) -->
  <g stroke-width="0.4" opacity="0.3">
    <path d="M -50,120 Q 50,80 150,120 Q 250,160 350,120 Q 450,80 550,120 Q 650,160 750,120 Q 850,80 950,120 Q 1050,160 1150,120 Q 1250,80 1300,120"/>
    <path d="M -50,128 Q 50,88 150,128 Q 250,168 350,128 Q 450,88 550,128 Q 650,168 750,128 Q 850,88 950,128 Q 1050,168 1150,128 Q 1250,88 1300,128"/>
    <path d="M -50,136 Q 50,96 150,136 Q 250,176 350,136 Q 450,96 550,136 Q 650,176 750,136 Q 850,96 950,136 Q 1050,176 1150,136 Q 1250,96 1300,136"/>
    <path d="M -50,144 Q 50,104 150,144 Q 250,184 350,144 Q 450,104 550,144 Q 650,184 750,144 Q 850,104 950,144 Q 1050,184 1150,144 Q 1250,104 1300,144"/>
    <path d="M -50,152 Q 50,112 150,152 Q 250,192 350,152 Q 450,112 550,152 Q 650,192 750,152 Q 850,112 950,152 Q 1050,192 1150,152 Q 1250,112 1300,152"/>
  </g>

  <!-- Bølgesett 2 -->
  <g stroke-width="0.5" opacity="0.25">
    <path d="M -50,280 Q 80,230 180,280 Q 300,340 400,280 Q 520,220 620,280 Q 740,340 840,280 Q 960,220 1060,280 Q 1160,330 1250,280"/>
    <path d="M -50,290 Q 80,240 180,290 Q 300,350 400,290 Q 520,230 620,290 Q 740,350 840,290 Q 960,230 1060,290 Q 1160,340 1250,290"/>
    <path d="M -50,300 Q 80,250 180,300 Q 300,360 400,300 Q 520,240 620,300 Q 740,360 840,300 Q 960,240 1060,300 Q 1160,350 1250,300"/>
    <path d="M -50,310 Q 80,260 180,310 Q 300,370 400,310 Q 520,250 620,310 Q 740,370 840,310 Q 960,250 1060,310 Q 1160,360 1250,310"/>
  </g>

  <!-- Bølgesett 3 — større amplitude -->
  <g stroke-width="0.5" opacity="0.3">
    <path d="M -50,440 Q 100,370 200,440 Q 320,520 420,440 Q 540,360 640,440 Q 760,520 860,440 Q 980,360 1080,440 Q 1180,510 1250,440"/>
    <path d="M -50,450 Q 100,380 200,450 Q 320,530 420,450 Q 540,370 640,450 Q 760,530 860,450 Q 980,370 1080,450 Q 1180,520 1250,450"/>
    <path d="M -50,460 Q 100,390 200,460 Q 320,540 420,460 Q 540,380 640,460 Q 760,540 860,460 Q 980,380 1080,460 Q 1180,530 1250,460"/>
    <path d="M -50,470 Q 100,400 200,470 Q 320,550 420,470 Q 540,390 640,470 Q 760,550 860,470 Q 980,390 1080,470 Q 1180,540 1250,470"/>
    <path d="M -50,480 Q 100,410 200,480 Q 320,560 420,480 Q 540,400 640,480 Q 760,560 860,480 Q 980,400 1080,480 Q 1180,550 1250,480"/>
    <path d="M -50,490 Q 100,420 200,490 Q 320,570 420,490 Q 540,410 640,490 Q 760,570 860,490 Q 980,410 1080,490 Q 1180,560 1250,490"/>
  </g>

  <!-- Bølgesett 4 -->
  <g stroke-width="0.4" opacity="0.2">
    <path d="M -50,620 Q 60,580 160,620 Q 260,660 360,620 Q 460,580 560,620 Q 660,660 760,620 Q 860,580 960,620 Q 1060,660 1160,620 Q 1250,580 1300,620"/>
    <path d="M -50,628 Q 60,588 160,628 Q 260,668 360,628 Q 460,588 560,628 Q 660,668 760,628 Q 860,588 960,628 Q 1060,668 1160,628 Q 1250,588 1300,628"/>
    <path d="M -50,636 Q 60,596 160,636 Q 260,676 360,636 Q 460,596 560,636 Q 660,676 760,636 Q 860,596 960,636 Q 1060,676 1160,636 Q 1250,596 1300,636"/>
  </g>

  <!-- Bølgesett 5 — roligere -->
  <g stroke-width="0.5" opacity="0.25">
    <path d="M -50,760 Q 120,730 240,760 Q 380,800 500,760 Q 640,720 760,760 Q 900,800 1020,760 Q 1140,720 1250,760"/>
    <path d="M -50,770 Q 120,740 240,770 Q 380,810 500,770 Q 640,730 760,770 Q 900,810 1020,770 Q 1140,730 1250,770"/>
    <path d="M -50,780 Q 120,750 240,780 Q 380,820 500,780 Q 640,740 760,780 Q 900,820 1020,780 Q 1140,740 1250,780"/>
    <path d="M -50,790 Q 120,760 240,790 Q 380,830 500,790 Q 640,750 760,790 Q 900,830 1020,790 Q 1140,750 1250,790"/>
  </g>

  <!-- Bølgesett 6 — tett, kobberstikk-aktig -->
  <g stroke-width="0.3" opacity="0.2">
    <path d="M -50,900 Q 50,870 150,900 Q 250,930 350,900 Q 450,870 550,900 Q 650,930 750,900 Q 850,870 950,900 Q 1050,930 1150,900 Q 1250,870 1300,900"/>
    <path d="M -50,906 Q 50,876 150,906 Q 250,936 350,906 Q 450,876 550,906 Q 650,936 750,906 Q 850,876 950,906 Q 1050,936 1150,906 Q 1250,876 1300,906"/>
    <path d="M -50,912 Q 50,882 150,912 Q 250,942 350,912 Q 450,882 550,912 Q 650,942 750,912 Q 850,882 950,912 Q 1050,942 1150,912 Q 1250,882 1300,912"/>
    <path d="M -50,918 Q 50,888 150,918 Q 250,948 350,918 Q 450,888 550,918 Q 650,948 750,918 Q 850,888 950,918 Q 1050,948 1150,918 Q 1250,888 1300,918"/>
    <path d="M -50,924 Q 50,894 150,924 Q 250,954 350,924 Q 450,894 550,924 Q 650,954 750,924 Q 850,894 950,924 Q 1050,954 1150,924 Q 1250,894 1300,924"/>
    <path d="M -50,930 Q 50,900 150,930 Q 250,960 350,930 Q 450,900 550,930 Q 650,960 750,930 Q 850,900 950,930 Q 1050,960 1150,930 Q 1250,900 1300,930"/>
    <path d="M -50,936 Q 50,906 150,936 Q 250,966 350,936 Q 450,906 550,936 Q 650,966 750,936 Q 850,906 950,936 Q 1050,966 1150,936 Q 1250,906 1300,936"/>
  </g>

  <!-- Bølgesett 7 — bunnen -->
  <g stroke-width="0.4" opacity="0.2">
    <path d="M -50,1040 Q 80,1000 200,1040 Q 340,1090 460,1040 Q 600,990 720,1040 Q 860,1090 980,1040 Q 1120,990 1250,1040"/>
    <path d="M -50,1050 Q 80,1010 200,1050 Q 340,1100 460,1050 Q 600,1000 720,1050 Q 860,1100 980,1050 Q 1120,1000 1250,1050"/>
    <path d="M -50,1060 Q 80,1020 200,1060 Q 340,1110 460,1060 Q 600,1010 720,1060 Q 860,1110 980,1060 Q 1120,1010 1250,1060"/>
    <path d="M -50,1070 Q 80,1030 200,1070 Q 340,1120 460,1070 Q 600,1020 720,1070 Q 860,1120 980,1070 Q 1120,1020 1250,1070"/>
  </g>

  <!-- Skumtopper — små bølge-detaljer -->
  <g stroke-width="0.3" opacity="0.15">
    <path d="M 180,115 Q 190,105 200,112"/>
    <path d="M 580,115 Q 590,105 600,112"/>
    <path d="M 980,115 Q 990,105 1000,112"/>
    <path d="M 320,275 Q 335,260 350,272"/>
    <path d="M 720,275 Q 735,260 750,272"/>
    <path d="M 280,435 Q 300,415 320,430"/>
    <path d="M 680,435 Q 700,415 720,430"/>
    <path d="M 1080,435 Q 1100,415 1120,430"/>
  </g>
</svg>
