<svg xmlns="http://www.w3.org/2000/svg" viewBox="0 0 1200 1200" fill="none" stroke="#c8b898" stroke-width="0.6" opacity="1">
  <!-- Koordinatgrid (latitude/longitude linjer) -->
  <g stroke-width="0.3" stroke-dasharray="6 12" opacity="0.4">
    <line x1="0" y1="150" x2="1200" y2="150"/>
    <line x1="0" y1="300" x2="1200" y2="300"/>
    <line x1="0" y1="450" x2="1200" y2="450"/>
    <line x1="0" y1="600" x2="1200" y2="600"/>
    <line x1="0" y1="750" x2="1200" y2="750"/>
    <line x1="0" y1="900" x2="1200" y2="900"/>
    <line x1="0" y1="1050" x2="1200" y2="1050"/>
    <line x1="150" y1="0" x2="150" y2="1200"/>
    <line x1="300" y1="0" x2="300" y2="1200"/>
    <line x1="450" y1="0" x2="450" y2="1200"/>
    <line x1="600" y1="0" x2="600" y2="1200"/>
    <line x1="750" y1="0" x2="750" y2="1200"/>
    <line x1="900" y1="0" x2="900" y2="1200"/>
    <line x1="1050" y1="0" x2="1050" y2="1200"/>
  </g>

  <!-- Dybdekurver — uregelmessige, organiske linjer -->
  <g stroke-width="0.5" fill="none" opacity="0.5">
    <!-- Ytre kystlinje -->
    <path d="M 0,280 Q 80,260 160,300 Q 280,360 380,340 Q 500,310 580,350 Q 700,400 800,370 Q 920,330 1000,360 Q 1100,400 1200,380"/>
    <!-- Dybdekurve 10m -->
    <path d="M 0,340 Q 100,320 200,360 Q 320,420 420,390 Q 540,350 640,400 Q 760,460 860,420 Q 960,380 1060,410 Q 1140,440 1200,430"/>
    <!-- Dybdekurve 20m -->
    <path d="M 0,420 Q 120,400 220,440 Q 340,500 460,470 Q 560,440 660,480 Q 780,540 880,500 Q 980,460 1080,490 Q 1160,520 1200,510"/>
    <!-- Dybdekurve 50m -->
    <path d="M 0,540 Q 140,520 260,560 Q 380,610 480,580 Q 600,540 720,590 Q 820,630 920,600 Q 1020,560 1120,590 Q 1180,610 1200,600"/>
  </g>

  <!-- Dybdekurver — nedre del -->
  <g stroke-width="0.4" fill="none" opacity="0.35">
    <path d="M 0,700 Q 100,720 220,690 Q 360,650 480,680 Q 600,720 720,700 Q 840,670 960,700 Q 1080,730 1200,710"/>
    <path d="M 0,800 Q 130,830 260,800 Q 400,760 520,790 Q 640,830 760,810 Q 880,780 1000,810 Q 1120,840 1200,820"/>
    <path d="M 0,920 Q 150,950 300,920 Q 440,880 580,910 Q 700,950 840,930 Q 960,900 1080,930 Q 1160,950 1200,940"/>
  </g>

  <!-- Kystlinje med tykk strek -->
  <g stroke-width="1.0" fill="none" opacity="0.45">
    <path d="M 0,200 Q 60,180 120,210 Q 200,250 280,230 Q 380,200 440,220 Q 540,260 640,240 Q 740,210 820,230 Q 900,260 980,240 Q 1060,210 1120,230 Q 1180,250 1200,240"/>
  </g>

  <!-- Land-skravering (kort, tett) -->
  <g stroke-width="0.3" opacity="0.2">
    <line x1="20" y1="160" x2="20" y2="190"/>
    <line x1="40" y1="150" x2="40" y2="185"/>
    <line x1="60" y1="145" x2="60" y2="180"/>
    <line x1="80" y1="150" x2="80" y2="175"/>
    <line x1="100" y1="155" x2="100" y2="185"/>
    <line x1="120" y1="160" x2="120" y2="200"/>
    <line x1="140" y1="165" x2="140" y2="195"/>
    <line x1="160" y1="175" x2="160" y2="210"/>
    <line x1="180" y1="170" x2="180" y2="200"/>
    <line x1="200" y1="175" x2="200" y2="210"/>
    <line x1="220" y1="180" x2="220" y2="215"/>
    <line x1="240" y1="190" x2="240" y2="220"/>
    <line x1="260" y1="185" x2="260" y2="220"/>
    <line x1="280" y1="180" x2="280" y2="215"/>
    <line x1="300" y1="175" x2="300" y2="205"/>
    <line x1="320" y1="170" x2="320" y2="200"/>
    <line x1="340" y1="165" x2="340" y2="195"/>
    <line x1="360" y1="168" x2="360" y2="198"/>
    <line x1="380" y1="172" x2="380" y2="200"/>
    <line x1="400" y1="178" x2="400" y2="210"/>
    <line x1="420" y1="182" x2="420" y2="212"/>
    <line x1="440" y1="175" x2="440" y2="210"/>
    <line x1="460" y1="180" x2="460" y2="215"/>
    <line x1="480" y1="185" x2="480" y2="220"/>
    <line x1="500" y1="190" x2="500" y2="225"/>
    <line x1="520" y1="195" x2="520" y2="230"/>
    <line x1="540" y1="200" x2="540" y2="235"/>
    <line x1="560" y1="195" x2="560" y2="230"/>
    <line x1="580" y1="190" x2="580" y2="225"/>
    <line x1="600" y1="185" x2="600" y2="220"/>
  </g>

  <!-- Loddskudd-tall (dybdemålinger) -->
  <g fill="#c8b898" font-family="'Cormorant Garamond', serif" font-size="11" opacity="0.4" stroke="none">
    <text x="120" y="330">12</text>
    <text x="280" y="380">18</text>
    <text x="410" y="360">15</text>
    <text x="550" y="370">22</text>
    <text x="680" y="420">28</text>
    <text x="810" y="390">24</text>
    <text x="950" y="375">19</text>
    <text x="1080" y="420">31</text>
    <text x="180" y="460">35</text>
    <text x="350" y="500">42</text>
    <text x="510" y="475">38</text>
    <text x="650" y="510">47</text>
    <text x="790" y="530">52</text>
    <text x="930" y="490">44</text>
    <text x="1050" y="520">56</text>
    <text x="240" y="580">63</text>
    <text x="430" y="600">71</text>
    <text x="620" y="590">68</text>
    <text x="800" y="620">75</text>
    <text x="990" y="600">82</text>
    <text x="160" y="740">94</text>
    <text x="380" y="720">88</text>
    <text x="570" y="750">102</text>
    <text x="760" y="730">96</text>
    <text x="940" y="760">110</text>
    <text x="1100" y="740">105</text>
    <text x="200" y="860">120</text>
    <text x="460" y="840">115</text>
    <text x="700" y="870">128</text>
    <text x="900" y="850">132</text>
    <text x="1080" y="880">140</text>
  </g>

  <!-- Små kors for posisjonsmålinger -->
  <g stroke-width="0.4" opacity="0.3">
    <line x1="117" y1="322" x2="127" y2="322"/><line x1="122" y1="317" x2="122" y2="327"/>
    <line x1="277" y1="372" x2="287" y2="372"/><line x1="282" y1="367" x2="282" y2="377"/>
    <line x1="547" y1="362" x2="557" y2="362"/><line x1="552" y1="357" x2="552" y2="367"/>
    <line x1="677" y1="412" x2="687" y2="412"/><line x1="682" y1="407" x2="682" y2="417"/>
    <line x1="947" y1="367" x2="957" y2="367"/><line x1="952" y1="362" x2="952" y2="372"/>
  </g>

  <!-- Kompassretningslinjer (rhumb lines) fra sentrum -->
  <g stroke-width="0.2" opacity="0.15">
    <line x1="600" y1="600" x2="0" y2="0"/>
    <line x1="600" y1="600" x2="600" y2="0"/>
    <line x1="600" y1="600" x2="1200" y2="0"/>
    <line x1="600" y1="600" x2="1200" y2="600"/>
    <line x1="600" y1="600" x2="1200" y2="1200"/>
    <line x1="600" y1="600" x2="600" y2="1200"/>
    <line x1="600" y1="600" x2="0" y2="1200"/>
    <line x1="600" y1="600" x2="0" y2="600"/>
  </g>

  <!-- Liten kompassrose -->
  <g transform="translate(950, 180)" stroke-width="0.5" opacity="0.4">
    <circle cx="0" cy="0" r="30" stroke-width="0.4"/>
    <circle cx="0" cy="0" r="28" stroke-width="0.2"/>
    <polygon points="0,-25 3,-8 0,-4 -3,-8" fill="#c8b898" fill-opacity="0.2"/>
    <polygon points="0,25 3,8 0,4 -3,8" fill="#c8b898" fill-opacity="0.1"/>
    <polygon points="25,0 8,3 4,0 8,-3" fill="#c8b898" fill-opacity="0.1"/>
    <polygon points="-25,0 -8,3 -4,0 -8,-3" fill="#c8b898" fill-opacity="0.1"/>
    <text fill="#c8b898" font-family="'Playfair Display', serif" font-size="8" text-anchor="middle" stroke="none" opacity="0.6" y="-32">N</text>
  </g>

  <!-- Skala-linje -->
  <g stroke-width="0.4" opacity="0.3" transform="translate(80, 1100)">
    <line x1="0" y1="0" x2="200" y2="0"/>
    <line x1="0" y1="-4" x2="0" y2="4"/>
    <line x1="50" y1="-3" x2="50" y2="3"/>
    <line x1="100" y1="-4" x2="100" y2="4"/>
    <line x1="150" y1="-3" x2="150" y2="3"/>
    <line x1="200" y1="-4" x2="200" y2="4"/>
    <text fill="#c8b898" font-family="'Cormorant Garamond', serif" font-size="8" stroke="none" opacity="0.5" y="14" x="0" text-anchor="middle">0</text>
    <text fill="#c8b898" font-family="'Cormorant Garamond', serif" font-size="8" stroke="none" opacity="0.5" y="14" x="100" text-anchor="middle">5</text>
    <text fill="#c8b898" font-family="'Cormorant Garamond', serif" font-size="8" stroke="none" opacity="0.5" y="14" x="200" text-anchor="middle">10 nm</text>
  </g>
</svg>
